name Walk10.mot
datacolumns 19
datarows 25
range 1.12500000 1.14900000
endheader

                time	   L_ground_force_vx	   L_ground_force_vy	   L_ground_force_vz	   L_ground_force_px	   L_ground_force_py	   L_ground_force_pz	   R_ground_force_vx	   R_ground_force_vy	   R_ground_force_vz	   R_ground_force_px	   R_ground_force_py	   R_ground_force_pz	   L_ground_torque_x	   L_ground_torque_y	   L_ground_torque_z	   R_ground_torque_x	   R_ground_torque_y	   R_ground_torque_z	
          1.12500000	          0.00000000	          0.00000000	          0.00000000	          0.00000000	          0.00000000	          0.00000000	          0.00000000	          0.00000000	          0.00000000	          0.00000000	          0.00000000	          0.00000000	          0.00000000	          0.00000000	          0.00000000	          0.00000000	          0.00000000	          0.00000000	
          1.12600000	          0.00000000	          0.00000000	          0.00000000	          0.00000000	          0.00000000	          0.00000000	          0.00000000	          0.00000000	          0.00000000	          0.00000000	          0.00000000	          0.00000000	          0.00000000	          0.00000000	          0.00000000	          0.00000000	          0.00000000	          0.00000000	
          1.12700000	          0.00000000	          0.00000000	          0.00000000	          0.00000000	          0.00000000	          0.00000000	          0.00000000	          0.00000000	          0.00000000	          0.00000000	          0.00000000	          0.00000000	          0.00000000	          0.00000000	          0.00000000	          0.00000000	          0.00000000	          0.00000000	
          1.12800000	          0.00000000	          0.00000000	          0.00000000	          0.00000000	          0.00000000	          0.00000000	          0.00000000	          0.00000000	          0.00000000	          0.00000000	          0.00000000	          0.00000000	          0.00000000	          0.00000000	          0.00000000	          0.00000000	          0.00000000	          0.00000000	
          1.12900000	          0.00000000	          0.00000000	          0.00000000	          0.00000000	          0.00000000	          0.00000000	          0.00000000	          0.00000000	          0.00000000	          0.00000000	          0.00000000	          0.00000000	          0.00000000	          0.00000000	          0.00000000	          0.00000000	          0.00000000	          0.00000000	
          1.13000000	          0.00000000	          0.00000000	          0.00000000	          0.00000000	          0.00000000	          0.00000000	          0.00000000	          0.00000000	          0.00000000	          0.00000000	          0.00000000	          0.00000000	          0.00000000	          0.00000000	          0.00000000	          0.00000000	          0.00000000	          0.00000000	
          1.13100000	          0.00000000	          0.00000000	          0.00000000	          0.00000000	          0.00000000	          0.00000000	          0.00000000	          0.00000000	          0.00000000	          0.00000000	          0.00000000	          0.00000000	          0.00000000	          0.00000000	          0.00000000	          0.00000000	          0.00000000	          0.00000000	
          1.13200000	         -0.72539895	          8.53926694	         -2.15620110	         -0.24766967	          0.00000000	         -0.03261918	          0.00000000	          0.00000000	          0.00000000	          0.00000000	          0.00000000	          0.00000000	          0.00000000	          0.03304781	          0.00000000	          0.00000000	          0.00000000	          0.00000000	
          1.13300000	         -1.33935510	         20.13248024	         -3.75487055	         -0.24571500	          0.00000000	         -0.03138081	          0.00000000	          0.00000000	          0.00000000	          0.00000000	          0.00000000	          0.00000000	          0.00000000	          0.05948894	          0.00000000	          0.00000000	          0.00000000	          0.00000000	
          1.13400000	         -2.04356943	         36.89634854	         -5.53990112	         -0.24488089	          0.00000000	         -0.03050384	          0.00000000	          0.00000000	          0.00000000	          0.00000000	          0.00000000	          0.00000000	          0.00000000	          0.09382993	          0.00000000	          0.00000000	          0.00000000	          0.00000000	
          1.13500000	         -2.70976174	         59.21973389	         -7.34592382	         -0.24455369	          0.00000000	         -0.02959118	          0.00000000	          0.00000000	          0.00000000	          0.00000000	          0.00000000	          0.00000000	          0.00000000	          0.13643919	          0.00000000	          0.00000000	          0.00000000	          0.00000000	
          1.13600000	         -3.19683934	         87.17124459	         -9.10425948	         -0.24448554	          0.00000000	         -0.02865570	          0.00000000	          0.00000000	          0.00000000	          0.00000000	          0.00000000	          0.00000000	          0.00000000	          0.19070342	          0.00000000	          0.00000000	          0.00000000	          0.00000000	
          1.13700000	         -3.40038962	        119.89009715	        -10.80151375	         -0.24449609	          0.00000000	         -0.02779035	          0.00000000	          0.00000000	          0.00000000	          0.00000000	          0.00000000	          0.00000000	          0.00000000	          0.25915928	          0.00000000	          0.00000000	          0.00000000	          0.00000000	
          1.13800000	         -3.30927011	        155.20563991	        -12.44155518	         -0.24448908	          0.00000000	         -0.02705873	          0.00000000	          0.00000000	          0.00000000	          0.00000000	          0.00000000	          0.00000000	          0.00000000	          0.33871642	          0.00000000	          0.00000000	          0.00000000	          0.00000000	
          1.13900000	         -3.03461487	        189.90154828	        -14.04275766	         -0.24441887	          0.00000000	         -0.02649801	          0.00000000	          0.00000000	          0.00000000	          0.00000000	          0.00000000	          0.00000000	          0.00000000	          0.42045721	          0.00000000	          0.00000000	          0.00000000	          0.00000000	
          1.14000000	         -2.79298365	        220.53628323	        -15.63956897	         -0.24422539	          0.00000000	         -0.02610832	          0.00000000	          0.00000000	          0.00000000	          0.00000000	          0.00000000	          0.00000000	          0.00000000	          0.49485320	          0.00000000	          0.00000000	          0.00000000	          0.00000000	
          1.14100000	         -2.85002083	        244.43626474	        -17.27022535	         -0.24384541	          0.00000000	         -0.02585187	          0.00000000	          0.00000000	          0.00000000	          0.00000000	          0.00000000	          0.00000000	          0.00000000	          0.55645268	          0.00000000	          0.00000000	          0.00000000	          0.00000000	
          1.14200000	         -3.43673421	        260.38418066	        -18.95100249	         -0.24328377	          0.00000000	         -0.02567524	          0.00000000	          0.00000000	          0.00000000	          0.00000000	          0.00000000	          0.00000000	          0.00000000	          0.60299525	          0.00000000	          0.00000000	          0.00000000	          0.00000000	
          1.14300000	         -4.67282297	        268.72479580	        -20.65405867	         -0.24262851	          0.00000000	         -0.02551753	          0.00000000	          0.00000000	          0.00000000	          0.00000000	          0.00000000	          0.00000000	          0.00000000	          0.63511500	          0.00000000	          0.00000000	          0.00000000	          0.00000000	
          1.14400000	         -6.54331771	        270.99514455	        -22.30679122	         -0.24198618	          0.00000000	         -0.02533233	          0.00000000	          0.00000000	          0.00000000	          0.00000000	          0.00000000	          0.00000000	          0.00000000	          0.65849648	          0.00000000	          0.00000000	          0.00000000	          0.00000000	
          1.14500000	         -8.92897615	        269.36115828	        -23.81946759	         -0.24142501	          0.00000000	         -0.02513130	          0.00000000	          0.00000000	          0.00000000	          0.00000000	          0.00000000	          0.00000000	          0.00000000	          0.67934766	          0.00000000	          0.00000000	          0.00000000	          0.00000000	
          1.14600000	        -11.65321916	        266.04282042	        -25.12862452	         -0.24097431	          0.00000000	         -0.02498076	          0.00000000	          0.00000000	          0.00000000	          0.00000000	          0.00000000	          0.00000000	          0.00000000	          0.69874694	          0.00000000	          0.00000000	          0.00000000	          0.00000000	
          1.14700000	        -14.53393713	        262.85842562	        -26.22293349	         -0.24062483	          0.00000000	         -0.02493183	          0.00000000	          0.00000000	          0.00000000	          0.00000000	          0.00000000	          0.00000000	          0.00000000	          0.71810701	          0.00000000	          0.00000000	          0.00000000	          0.00000000	
          1.14800000	        -17.43500570	        261.01068569	        -27.13173933	         -0.24030734	          0.00000000	         -0.02497740	          0.00000000	          0.00000000	          0.00000000	          0.00000000	          0.00000000	          0.00000000	          0.00000000	          0.74360193	          0.00000000	          0.00000000	          0.00000000	          0.00000000	
          1.14900000	        -20.28705661	        261.10219137	        -27.89811814	         -0.23992939	          0.00000000	         -0.02509169	          0.00000000	          0.00000000	          0.00000000	          0.00000000	          0.00000000	          0.00000000	          0.00000000	          0.77719897	          0.00000000	          0.00000000	          0.00000000	          0.00000000	
